Normalized EMG Linear Envelopes
nRows=21
nColumns=17

endheader
time	        VM	        VL	        RF	       GRA	        TA	   ADDLONG	   SEMIMEM	      BFLH	        GM	        GL	       TFL	   GLUTMAX	   GLUTMED	      PIRI	    OBTINT	        QF	
2.7	  0.556780	  0.512337	  0.098898	  0.200687	  0.150308	  0.066903	  0.403139	  0.246246	  0.685135	  0.534716	  0.075755	  0.315068	  0.504877	  0.789099	  1.615045	  0.794152	
2.7005	  0.546990	  0.504805	  0.097707	  0.199759	  0.149611	  0.066949	  0.401867	  0.243165	  0.685278	  0.535918	  0.075638	  0.308887	  0.502419	  0.786114	  1.618363	  0.784954	
2.701	  0.537235	  0.497259	  0.096511	  0.198844	  0.148901	  0.067018	  0.400560	  0.240127	  0.685349	  0.537088	  0.075520	  0.302755	  0.499894	  0.783013	  1.621530	  0.775808	
2.7015	  0.527516	  0.489703	  0.095311	  0.197942	  0.148177	  0.067111	  0.399219	  0.237133	  0.685346	  0.538225	  0.075402	  0.296673	  0.497307	  0.779799	  1.624541	  0.766715	
2.702	  0.517839	  0.482140	  0.094107	  0.197055	  0.147440	  0.067229	  0.397843	  0.234182	  0.685269	  0.539326	  0.075285	  0.290643	  0.494661	  0.776473	  1.627391	  0.757678	
2.7025	  0.508207	  0.474574	  0.092899	  0.196181	  0.146691	  0.067371	  0.396433	  0.231273	  0.685117	  0.540391	  0.075166	  0.284666	  0.491957	  0.773038	  1.630078	  0.748698	
2.703	  0.498622	  0.467007	  0.091689	  0.195322	  0.145930	  0.067539	  0.394988	  0.228406	  0.684891	  0.541419	  0.075048	  0.278742	  0.489200	  0.769495	  1.632599	  0.739776	
2.7035	  0.489089	  0.459443	  0.090478	  0.194477	  0.145158	  0.067732	  0.393508	  0.225581	  0.684588	  0.542406	  0.074930	  0.272873	  0.486392	  0.765847	  1.634952	  0.730916	
2.704	  0.479610	  0.451887	  0.089265	  0.193648	  0.144375	  0.067952	  0.391993	  0.222797	  0.684208	  0.543353	  0.074812	  0.267059	  0.483536	  0.762095	  1.637135	  0.722117	
2.7045	  0.470189	  0.444340	  0.088053	  0.192834	  0.143583	  0.068199	  0.390443	  0.220054	  0.683751	  0.544258	  0.074695	  0.261303	  0.480636	  0.758239	  1.639147	  0.713382	
2.705	  0.460828	  0.436806	  0.086840	  0.192036	  0.142780	  0.068473	  0.388858	  0.217351	  0.683215	  0.545119	  0.074577	  0.255604	  0.477693	  0.754283	  1.640985	  0.704711	
2.7055	  0.451530	  0.429288	  0.085629	  0.191256	  0.141969	  0.068775	  0.387236	  0.214689	  0.682601	  0.545935	  0.074459	  0.249964	  0.474712	  0.750225	  1.642648	  0.696106	
2.706	  0.442299	  0.421790	  0.084419	  0.190492	  0.141149	  0.069106	  0.385577	  0.212066	  0.681907	  0.546706	  0.074342	  0.244384	  0.471695	  0.746068	  1.644133	  0.687569	
2.7065	  0.433136	  0.414314	  0.083212	  0.189746	  0.140322	  0.069465	  0.383882	  0.209483	  0.681134	  0.547430	  0.074224	  0.238864	  0.468645	  0.741812	  1.645437	  0.679099	
2.707	  0.424044	  0.406863	  0.082007	  0.189018	  0.139489	  0.069853	  0.382150	  0.206938	  0.680282	  0.548107	  0.074107	  0.233405	  0.465565	  0.737457	  1.646559	  0.670699	
2.7075	  0.415027	  0.399441	  0.080806	  0.188308	  0.138649	  0.070271	  0.380380	  0.204432	  0.679351	  0.548735	  0.073990	  0.228007	  0.462459	  0.733005	  1.647494	  0.662370	
2.708	  0.406085	  0.392049	  0.079609	  0.187617	  0.137804	  0.070720	  0.378573	  0.201965	  0.678339	  0.549314	  0.073873	  0.222673	  0.459329	  0.728457	  1.648242	  0.654113	
2.7085	  0.397222	  0.384692	  0.078416	  0.186945	  0.136956	  0.071198	  0.376729	  0.199535	  0.677248	  0.549842	  0.073756	  0.217401	  0.456179	  0.723813	  1.648800	  0.645928	
2.709	  0.388440	  0.377371	  0.077229	  0.186293	  0.136104	  0.071708	  0.374849	  0.197143	  0.676076	  0.550318	  0.073640	  0.212194	  0.453012	  0.719074	  1.649168	  0.637818	
2.7095	  0.379740	  0.370090	  0.076047	  0.185661	  0.135249	  0.072249	  0.372932	  0.194788	  0.674824	  0.550741	  0.073523	  0.207051	  0.449830	  0.714242	  1.649344	  0.629783	
2.71	  0.371125	  0.362850	  0.074870	  0.185049	  0.134394	  0.072821	  0.370981	  0.192470	  0.673491	  0.551110	  0.073406	  0.201973	  0.446637	  0.709320	  1.649329	  0.621824	
